#!OML:ASF H:\BabyWalks\Project 1\Capture day 1\Session 1\baby.ASF
:FULLY-SPECIFIED
:DEGREES
919
root -28.2155 17.0683 -2.23922 -496.533 65.3641 -485.111
lowerback 8.42096 5.81275 2.28911
upperback 1.67078 8.07999 -6.81197
thorax -1.62798 4.19346 -9.18223
lowerneck 2.00769 -5.6648 3.6686
upperneck 3.23913 -7.16013 21.3187
head 1.26453 -2.88521 5.81018
rclavicle 5.64548e-014 -9.85972e-014
rhumerus 33.377 -28.7654 3.98894
rradius 57.8834
rwrist 3.55172
rhand -35.1652 2.10592
rfingers 7.12502
rthumb -8.30417 -27.7109
lclavicle 5.64548e-014 -9.85972e-014
lhumerus -48.3809 -17.8103 49.8445
lradius 66.9076
lwrist 4.90339
lhand -1.02219 2.58131
lfingers 7.12502
lthumb 24.6109 31.0191
rfemur 21.0521 -5.21274 36.1959
rtibia -4.13472e-014
rfoot -9.74253 -12.0472
rtoes -11.8868
lfemur -7.15506 -19.5955 15.4789
ltibia 35.1541
lfoot -30.3174 2.10494
ltoes -7.43111
920
root -28.1975 17.0458 -2.21733 -496.194 64.725 -484.456
lowerback 8.59394 5.82574 2.52698
upperback 1.70044 8.12906 -6.94629
thorax -1.62969 4.22564 -9.48689
lowerneck 1.88956 -5.72253 3.73612
upperneck 3.36597 -7.28292 21.2022
head 1.32785 -2.93039 5.75568
rclavicle 4.77083e-015 1.36764e-013
rhumerus 34.1088 -29.326 4.2759
rradius 55.7379
rwrist 4.19618
rhand -34.8396 2.30635
rfingers 7.12502
rthumb -7.98999 -27.5226
lclavicle 4.77083e-015 1.36764e-013
lhumerus -48.4213 -17.8071 49.4425
lradius 66.8084
lwrist 4.92947
lhand -0.969368 2.57762
lfingers 7.12502
lthumb 24.6616 31.0085
rfemur 21.2771 -5.58453 36.9159
rtibia 2.06736e-014
rfoot -9.83936 -12.0197
rtoes -11.8044
lfemur -7.30841 -19.3778 16.4402
ltibia 35.4983
lfoot -30.6331 1.34592
ltoes -6.76549
921
root -28.181 17.0231 -2.19599 -495.787 64.0871 -483.746
lowerback 8.75538 5.84215 2.78158
upperback 1.72038 8.1837 -7.069
thorax -1.6328 4.2598 -9.78912
lowerneck 1.77138 -5.7713 3.81862
upperneck 3.50919 -7.39723 21.0337
head 1.39259 -2.97209 5.68226
rclavicle -6.36111e-014 9.22361e-014
rhumerus 34.7892 -29.8798 4.41726
rradius 53.8467
rwrist 4.80015
rhand -34.5626 2.53848
rfingers 7.12502
rthumb -7.7226 -27.3005
lclavicle -6.36111e-014 9.22361e-014
lhumerus -48.4672 -17.8377 49.0974
lradius 66.659
lwrist 4.94581
lhand -0.923429 2.57716
lfingers 7.12502
lthumb 24.7056 31.002
rfemur 21.4699 -5.92655 37.6565
rtibia 3.49861e-014
rfoot -9.91932 -11.9902
rtoes -11.7427
lfemur -7.47416 -19.1589 17.4255
ltibia 35.8462
lfoot -30.9255 0.61714
ltoes -6.1614
922
root -28.1661 17.0007 -2.17521 -495.333 63.465 -483.013
lowerback 8.89245 5.86276 3.02627
upperback 1.73124 8.24268 -7.18352
thorax -1.63298 4.29555 -10.0755
lowerneck 1.64563 -5.80949 3.91524
upperneck 3.67215 -7.50204 20.8136
head 1.46094 -3.00915 5.59012
rclavicle 8.0309e-014 -5.40694e-014
rhumerus 35.435 -30.436 4.40765
rradius 52.203
rwrist 5.36418
rhand -34.3794 2.7641
rfingers 7.12502
rthumb -7.54574 -27.0813
lclavicle 8.0309e-014 -5.40694e-014
lhumerus -48.5228 -17.893 48.8124
lradius 66.4612
lwrist 4.95654
lhand -0.887843 2.57939
lfingers 7.12502
lthumb 24.7397 30.9996
rfemur 21.6235 -6.23288 38.3973
rtibia -1.74931e-014
rfoot -9.98558 -11.9572
rtoes -11.6881
lfemur -7.65103 -18.9532 18.4069
ltibia 36.1884
lfoot -31.1906 -0.0484421
ltoes -5.65926
923
root -28.1527 16.9793 -2.15483 -494.853 62.8708 -482.286
lowerback 8.99367 5.88741 3.23553
upperback 1.73473 8.30336 -7.29192
thorax -1.62602 4.3318 -10.3314
lowerneck 1.51353 -5.83003 4.02706
upperneck 3.84543 -7.5851 20.5442
head 1.5288 -3.03642 5.4803
rclavicle 7.95139e-015 9.54166e-014
rhumerus 36.0694 -30.9995 4.24273
rradius 50.783
rwrist 5.90551
rhand -34.3166 2.95008
rfingers 7.12502
rthumb -7.48515 -26.8975
lclavicle 7.95139e-015 9.54166e-014
lhumerus -48.5956 -17.9625 48.5871
lradius 66.2192
lwrist 4.96253
lhand -0.849083 2.56996
lfingers 7.12502
lthumb 24.7769 30.9851
rfemur 21.7352 -6.5013 39.1214
rtibia -3.81667e-014
rfoot -10.0363 -11.9155
rtoes -11.6377
lfemur -7.83478 -18.7761 19.3592
ltibia 36.5151
lfoot -31.4224 -0.612832
ltoes -5.31964
924
root -28.1403 16.9593 -2.13476 -494.354 62.3236 -481.58
lowerback 9.04807 5.91609 3.3883
upperback 1.73101 8.36362 -7.3995
thorax -1.60851 4.36776 -10.5488
lowerneck 1.36248 -5.83066 4.16001
upperneck 4.03875 -7.64622 20.2155
head 1.60068 -3.05257 5.3484
rclavicle 6.04305e-014 3.81667e-014
rhumerus 36.7192 -31.573 3.9124
rradius 49.559
rwrist 6.44512
rhand -34.3837 3.0765
rfingers 7.12502
rthumb -7.54992 -26.7687
lclavicle 6.04305e-014 3.81667e-014
lhumerus -48.695 -18.0365 48.4206
lradius 65.9365
lwrist 4.969
lhand -0.825299 2.55047
lfingers 7.12502
lthumb 24.7996 30.9624
rfemur 21.8033 -6.72173 39.8097
rtibia 6.36111e-015
rfoot -10.0763 -11.8689
rtoes -11.597
lfemur -8.01553 -18.6365 20.2532
ltibia 36.8164
lfoot -31.6195 -1.04012
ltoes -5.1869
925
root -28.1291 16.9412 -2.1151 -493.855 61.8348 -480.916
lowerback 9.05592 5.94665 3.47275
upperback 1.72079 8.41935 -7.50985
thorax -1.58209 4.40143 -10.7241
lowerneck 1.19649 -5.80592 4.31058
upperneck 4.24409 -7.67548 19.8332
head 1.67314 -3.05363 5.19744
rclavicle 8.74653e-014 0
rhumerus 37.4041 -32.1505 3.41461
rradius 48.5029
rwrist 6.9974
rhand -34.5783 3.1332
rfingers 7.12502
rthumb -7.73778 -26.7052
lclavicle 8.74653e-014 0
lhumerus -48.8248 -18.1067 48.3117
lradius 65.6104
lwrist 4.98595
lhand -0.802188 2.51386
lfingers 7.12502
lthumb 24.8218 30.9228
rfemur 21.8317 -6.89362 40.4461
rtibia -4.13472e-014
rfoot -10.105 -11.8202
rtoes -11.5562
lfemur -8.18424 -18.5497 21.0653
ltibia 37.0839
lfoot -31.7843 -1.30947
ltoes -5.27409
926
root -28.1189 16.9253 -2.09578 -493.351 61.4146 -480.29
lowerback 9.01061 5.98496 3.47426
upperback 1.70631 8.47691 -7.61778
thorax -1.54269 4.43606 -10.8421
lowerneck 1.01258 -5.75728 4.47688
upperneck 4.46626 -7.67565 19.401
head 1.74877 -3.04031 5.02887
rclavicle -4.45278e-014 6.67916e-014
rhumerus 38.1121 -32.7118 2.79912
rradius 47.5919
rwrist 7.54399
rhand -34.8839 3.12181
rfingers 7.12502
rthumb -8.03272 -26.7055
lclavicle -4.45278e-014 6.67916e-014
lhumerus -48.9813 -18.176 48.2774
lradius 65.2327
lwrist 4.99788
lhand -0.796044 2.45923
lfingers 7.12502
lthumb 24.8277 30.8673
rfemur 21.824 -7.01047 41.0247
rtibia 2.22639e-014
rfoot -10.1208 -11.7712
rtoes -11.5213
lfemur -8.32832 -18.5304 21.7807
ltibia 37.311
lfoot -31.9194 -1.39705
ltoes -5.59475
927
root -28.1096 16.9117 -2.07686 -492.849 61.0762 -479.704
lowerback 8.91576 6.02917 3.38973
upperback 1.68804 8.53407 -7.72876
thorax -1.4921 4.47065 -10.9072
lowerneck 0.817806 -5.68167 4.65157
upperneck 4.69807 -7.64008 18.9342
head 1.82482 -3.00995 4.84924
rclavicle 3.02153e-014 3.18055e-015
rhumerus 38.8454 -33.2429 2.07871
rradius 46.8051
rwrist 8.06827
rhand -35.2708 3.05983
rfingers 7.12502
rthumb -8.40612 -26.7529
lclavicle 3.02153e-014 3.18055e-015
lhumerus -49.172 -18.2532 48.3217
lradius 64.8071
lwrist 4.98007
lhand -0.837539 2.41737
lfingers 7.12502
lthumb 24.7879 30.8309
rfemur 21.7887 -7.06805 41.5323
rtibia 0
rfoot -10.1264 -11.725
rtoes -11.493
lfemur -8.4334 -18.5783 22.382
ltibia 37.4933
lfoot -32.028 -1.31709
ltoes -6.07234
928
root -28.1014 16.9003 -2.05848 -492.343 60.8212 -479.147
lowerback 8.77846 6.08105 3.22766
upperback 1.66674 8.59446 -7.84081
thorax -1.43193 4.5069 -10.923
lowerneck 0.617509 -5.58341 4.82657
upperneck 4.93554 -7.57324 18.4486
head 1.90076 -2.96492 4.66499
rclavicle -1.82882e-014 1.01778e-013
rhumerus 39.5778 -33.7211 1.30363
rradius 46.1313
rwrist 8.52062
rhand -35.6996 2.97334
rfingers 7.12502
rthumb -8.81993 -26.8224
lclavicle -1.82882e-014 1.01778e-013
lhumerus -49.3904 -18.3438 48.4491
lradius 64.3313
lwrist 4.93098
lhand -0.924068 2.39496
lfingers 7.12502
lthumb 24.705 30.8199
rfemur 21.734 -7.06498 41.9703
rtibia 2.06736e-014
rfoot -10.1245 -11.6855
rtoes -11.4691
lfemur -8.49145 -18.6621 22.8755
ltibia 37.6292
lfoot -32.1112 -1.11901
ltoes -6.62512
929
root -28.0941 16.8911 -2.04066 -491.832 60.652 -478.61
lowerback 8.60881 6.13876 2.9959
upperback 1.64258 8.65707 -7.95573
thorax -1.36652 4.54415 -10.8974
lowerneck 0.420446 -5.4652 4.99227
upperneck 5.16824 -7.47617 17.9633
head 1.97342 -2.90653 4.48388
rclavicle 8.50798e-014 -9.54166e-014
rhumerus 40.2918 -34.1287 0.513873
rradius 45.557
rwrist 8.86598
rhand -36.1226 2.88083
rfingers 7.12502
rthumb -9.22812 -26.8972
lclavicle 8.50798e-014 -9.54166e-014
lhumerus -49.638 -18.4551 48.6564
lradius 63.8105
lwrist 4.83368
lhand -1.03898 2.38626
lfingers 7.12502
lthumb 24.5948 30.8263
rfemur 21.6702 -7.00127 42.3373
rtibia 1.11319e-014
rfoot -10.1153 -11.6523
rtoes -11.4333
lfemur -8.48982 -18.8058 23.2526
ltibia 37.7203
lfoot -32.1742 -0.785631
ltoes -7.23227
